<svg width="276" height="134" viewBox="0 0 276 134" fill="none" xmlns="http://www.w3.org/2000/svg">
<g filter="url(#filter0_dddddd_710_45)">
<mask id="mask0_710_45" style="mask-type:luminance" maskUnits="userSpaceOnUse" x="72" y="30" width="178" height="32">
<path d="M249.301 30H72.0081V61.5732H249.301V30Z" fill="white"/>
</mask>
<g mask="url(#mask0_710_45)">
<path d="M242.542 61.1466V54.4395H235.542V50.8772L241.954 30.3413H246.689V50.4597H248.786V54.4425H246.689V61.1496H242.542V61.1466ZM239.397 50.4566H242.542V39.8947H242.289L242.039 40.818L239.397 50.4566Z" fill="white" fill-opacity="0.4"/>
<path d="M221.474 61.1465V56.6609C222.437 55.1799 223.373 53.6227 224.284 51.9863C225.192 50.353 226.009 48.7105 226.737 47.0619C227.477 45.3981 228.066 43.7921 228.498 42.241C228.931 40.69 229.147 39.2638 229.147 37.9657C229.147 37.0423 229.056 36.183 228.876 35.3876C228.693 34.5923 228.282 34.1931 227.639 34.1931C226.996 34.1931 226.585 34.5923 226.402 35.3876C226.219 36.1708 226.13 37.0301 226.13 37.9657V40.1018H221.605V37.9657C221.605 36.7376 221.709 35.6314 221.919 34.6532C222.142 33.6598 222.492 32.8218 222.967 32.1392C223.443 31.4414 224.064 30.9111 224.832 30.5455C225.6 30.1828 226.536 30 227.642 30C228.748 30 229.681 30.1828 230.452 30.5455C231.219 30.9081 231.841 31.4261 232.317 32.0965C232.792 32.767 233.133 33.5775 233.343 34.5283C233.566 35.4638 233.679 36.5121 233.679 37.6731C233.679 39.0566 233.468 40.5498 233.051 42.1588C232.646 43.7525 232.1 45.392 231.418 47.0832C230.747 48.7592 229.991 50.4139 229.153 52.0503C228.315 53.6715 227.462 55.2073 226.597 56.6609H233.764V61.1465H221.483H221.474Z" fill="white" fill-opacity="0.4"/>
<path d="M213.028 61.4828C211.742 61.4828 210.645 61.1902 209.737 60.6021C208.844 60.014 208.159 59.2186 207.683 58.213C207.223 57.1922 206.992 56.0616 206.992 54.8183V36.6685C206.992 35.41 207.229 34.2794 207.705 33.2738C208.195 32.2682 208.893 31.4729 209.801 30.8847C210.709 30.2966 211.785 30.0041 213.028 30.0041C214.272 30.0041 215.363 30.3057 216.255 30.9061C217.164 31.4942 217.855 32.2895 218.331 33.2952C218.821 34.3008 219.065 35.4252 219.065 36.6685V54.8153C219.065 56.0586 218.821 57.1891 218.331 58.21C217.843 59.2156 217.142 60.0109 216.234 60.599C215.341 61.1872 214.272 61.4797 213.028 61.4797V61.4828ZM213.028 57.0794C213.559 57.0794 213.943 56.8569 214.18 56.409C214.418 55.9489 214.537 55.4156 214.537 54.8153V36.6685C214.537 36.053 214.418 35.5227 214.18 35.0748C213.943 34.6268 213.559 34.4044 213.028 34.4044C212.498 34.4044 212.114 34.6421 211.876 35.1174C211.639 35.5776 211.52 36.0956 211.52 36.6685V54.8153C211.52 55.4156 211.639 55.9458 211.876 56.409C212.114 56.8569 212.498 57.0794 213.028 57.0794Z" fill="white" fill-opacity="0.4"/>
<path d="M192.265 61.1465V56.6609C193.228 55.1799 194.164 53.6227 195.075 51.9863C195.983 50.353 196.8 48.7105 197.528 47.0619C198.268 45.3981 198.857 43.7921 199.289 42.241C199.722 40.69 199.938 39.2638 199.938 37.9657C199.938 37.0423 199.847 36.183 199.667 35.3876C199.484 34.5923 199.073 34.1931 198.43 34.1931C197.787 34.1931 197.376 34.5923 197.193 35.3876C197.01 36.1708 196.922 37.0301 196.922 37.9657V40.1018H192.396V37.9657C192.396 36.7376 192.5 35.6314 192.71 34.6532C192.936 33.6598 193.283 32.8218 193.758 32.1392C194.234 31.4414 194.855 30.9111 195.623 30.5455C196.391 30.1828 197.327 30 198.433 30C199.539 30 200.472 30.1828 201.243 30.5455C202.011 30.9081 202.632 31.4261 203.108 32.0965C203.583 32.767 203.924 33.5775 204.135 34.5283C204.357 35.4638 204.47 36.5121 204.47 37.6731C204.47 39.0566 204.259 40.5498 203.842 42.1588C203.437 43.7525 202.891 45.392 202.209 47.0832C201.538 48.7592 200.782 50.4139 199.944 52.0503C199.106 53.6715 198.253 55.2073 197.388 56.6609H204.555V61.1465H192.274H192.265Z" fill="white" fill-opacity="0.4"/>
<path fill-rule="evenodd" clip-rule="evenodd" d="M138.51 61.484C137.267 61.484 136.234 61.2829 135.408 60.8776C134.582 60.4571 133.933 59.8568 133.458 59.0766C132.982 58.2935 132.641 57.3519 132.431 56.2487C132.236 55.1456 132.138 53.9023 132.138 52.5188L136.581 52.0983C136.581 52.7687 136.603 53.4178 136.645 54.0486C136.7 54.6641 136.792 55.2218 136.917 55.7246C137.057 56.2122 137.252 56.6053 137.502 56.8978C137.767 57.1904 138.102 57.3366 138.507 57.3366C139.178 57.3366 139.653 57.0289 139.933 56.4133C140.214 55.7856 140.351 55.0298 140.351 54.1491C140.351 53.2685 140.119 52.3543 139.659 51.4035C139.199 50.4528 138.647 49.5538 138.004 48.7006C136.913 47.247 135.957 45.9001 135.134 44.6568C134.323 43.4135 133.689 42.1915 133.226 40.9909C132.778 39.7902 132.556 38.5317 132.556 37.2183C132.556 36.1853 132.687 35.2345 132.955 34.3691C133.22 33.4884 133.604 32.7266 134.107 32.0836C134.625 31.4284 135.247 30.9165 135.972 30.5538C136.697 30.1912 137.529 30.0084 138.465 30.0084C139.626 30.0084 140.604 30.2034 141.399 30.5965C142.21 30.9865 142.859 31.5473 143.349 32.2725C143.852 32.9978 144.215 33.8663 144.44 34.8719C144.678 35.8653 144.797 36.9684 144.797 38.1843L140.354 38.6048C140.354 38.0868 140.326 37.5718 140.272 37.0537C140.229 36.5235 140.147 36.042 140.022 35.6063C139.897 35.1736 139.714 34.8231 139.476 34.558C139.239 34.2929 138.931 34.1588 138.553 34.1588C137.968 34.1588 137.559 34.4117 137.337 34.9145C137.115 35.4021 137.002 36.103 137.002 37.0111C137.002 38.1843 137.316 39.3148 137.943 40.4058C138.571 41.4967 139.418 42.7674 140.479 44.221C141.75 45.9397 142.786 47.5182 143.581 48.9565C144.392 50.3949 144.797 51.9886 144.797 53.7347C144.797 54.8378 144.678 55.8648 144.44 56.8155C144.203 57.7511 143.825 58.5677 143.31 59.2686C142.807 59.9665 142.158 60.5119 141.359 60.902C140.576 61.292 139.629 61.4901 138.51 61.4901V61.484ZM149.822 34.9938V61.1458H154.347V34.9938H158.622V30.3436H145.546V34.9968H149.822V34.9938ZM157.269 61.1488L161.923 30.3436H167.457L172.11 61.1488H167.71L166.872 54.8622H162.514L161.676 61.1488H157.276H157.269ZM163.139 50.084H166.241L164.943 39.7323L164.818 38.099H164.568L164.443 39.7323L163.145 50.084H163.139ZM174.085 61.1488V30.3436H178.613C181.322 30.3436 183.321 31.0993 184.607 32.6077C185.893 34.1039 186.536 36.3102 186.536 39.2295C186.536 40.9604 186.228 42.4627 185.613 43.7365C185.012 44.995 184.278 45.9153 183.412 46.5034L186.493 61.1519H181.968L179.411 48.1581H178.616V61.1519H174.088L174.085 61.1488ZM178.61 43.965C179.448 43.965 180.112 43.7822 180.6 43.4196C181.09 43.0417 181.438 42.5115 181.648 41.8258C181.858 41.1402 181.962 40.3296 181.962 39.3941C181.962 37.9283 181.718 36.8039 181.227 36.0207C180.752 35.2254 179.877 34.8262 178.607 34.8262V43.962L178.61 43.965ZM115.07 30.3436V61.1488H125.59V56.9588H119.596V30.3436H115.067H115.07ZM103.131 61.1488V30.3436H107.659V56.9588H113.653V61.1488H103.134H103.131ZM90.8838 60.6033C91.7919 61.1915 92.8829 61.484 94.1536 61.484C95.4243 61.484 96.4878 61.1915 97.3807 60.6033C98.2888 60.0152 98.9805 59.2199 99.4559 58.2143C99.9435 57.2086 100.19 56.0781 100.19 54.8196V30.3436H95.6651V54.8196C95.6651 55.4199 95.5523 55.9501 95.3299 56.4133C95.1074 56.8613 94.7143 57.0837 94.1567 57.0837C93.599 57.0837 93.2425 56.8613 93.0048 56.4133C92.7671 55.9532 92.6482 55.4199 92.6482 54.8196V30.3436H88.123V54.8196C88.123 56.0781 88.3607 57.2086 88.836 58.2143C89.3114 59.2199 89.9971 60.0152 90.8899 60.6033H90.8838ZM72.0027 61.1488V30.3436H76.2354L80.4255 46.3968L80.8033 47.8229H81.0563V30.3436H85.2067V61.1488H81.3915L76.7809 45.0956L76.403 43.6694H76.1501V61.1458H71.9997L72.0027 61.1488ZM128.469 43.6146L127.15 40.9391L125.83 43.6146L122.878 44.0443L125.014 46.1256L124.511 49.0632L127.15 47.6767L129.789 49.0632L129.286 46.1256L131.422 44.0443L128.472 43.6146H128.469Z" fill="white"/>
</g>
<mask id="mask1_710_45" style="mask-type:luminance" maskUnits="userSpaceOnUse" x="27" y="30" width="35" height="69">
<path d="M55.6162 30H33.1484C29.7959 30 27.0781 32.7177 27.0781 36.0702V91.9335C27.0781 95.286 29.7959 98.0038 33.1484 98.0038H55.6162C58.9687 98.0038 61.6864 95.286 61.6864 91.9335V36.0702C61.6864 32.7177 58.9687 30 55.6162 30Z" fill="white"/>
</mask>
<g mask="url(#mask1_710_45)">
<path d="M27.0897 36.073C27.0897 32.7209 29.811 29.9997 33.163 29.9997H55.6278C58.9798 29.9997 61.698 32.7179 61.698 36.0699V91.9301C61.698 95.2822 58.9798 98.0004 55.6278 98.0004H33.163C29.811 98.0004 27.0928 95.2822 27.0928 91.9301V36.073H27.0897Z" fill="#CC2A31"/>
<path fill-rule="evenodd" clip-rule="evenodd" d="M55.6278 31.2155H33.163C30.4814 31.2155 28.3056 33.3913 28.3056 36.073V91.9332C28.3056 94.6148 30.4814 96.7906 33.163 96.7906H55.6278C58.3094 96.7906 60.4852 94.6148 60.4852 91.9332V36.073C60.4852 33.3913 58.3094 31.2155 55.6278 31.2155ZM33.163 29.9997C29.811 29.9997 27.0897 32.7209 27.0897 36.073V91.9332C27.0897 95.2852 29.8079 98.0034 33.1599 98.0034H55.6247C58.9768 98.0034 61.695 95.2852 61.695 91.9332V36.073C61.695 32.7209 58.9768 30.0027 55.6247 30.0027H33.163V29.9997Z" fill="white"/>
<path fill-rule="evenodd" clip-rule="evenodd" d="M43.73 29.9997L41.2556 67.7802L57.6166 72.5035L50.492 98.0034H33.1681C29.816 98.0034 27.0978 95.2852 27.0978 91.9332V36.073C27.0948 32.7209 29.816 29.9997 33.1681 29.9997H43.73Z" fill="#0554A3"/>
<path d="M41.2556 67.7809L40.0428 67.7017L39.9788 68.6768L40.9173 68.948L41.2556 67.7809ZM43.73 30.0004L44.9428 30.0796L45.0282 28.7845H43.7331V29.9973L43.73 30.0004ZM57.6135 72.5042L58.7837 72.8303L59.1067 71.6693L57.9488 71.3341L57.6105 72.5012L57.6135 72.5042ZM50.4889 98.0041V99.2169H51.4092L51.6561 98.3302L50.4859 98.0041H50.4889ZM42.4654 67.8601L44.9428 30.0826L42.5202 29.9242L40.0458 67.7047L42.4684 67.8632L42.4654 67.8601ZM57.9518 71.3371L41.5908 66.6138L40.9173 68.948L57.2783 73.6714L57.9518 71.3371ZM51.6591 98.3302L58.7837 72.8303L56.4434 72.1782L49.3188 97.6781L51.6591 98.3302ZM50.4889 96.7913H33.168V99.22H50.4889V96.7913ZM33.168 96.7913C30.4864 96.7913 28.3106 94.6155 28.3106 91.9339H25.8819C25.8819 95.9563 29.1425 99.22 33.168 99.22V96.7913ZM28.3106 91.9339V36.0736H25.8819V91.9339H28.3106ZM28.3106 36.0736C28.3106 33.392 30.4864 31.2162 33.168 31.2162V28.7875C29.1425 28.7875 25.8819 32.0482 25.8819 36.0736H28.3106ZM33.168 31.2162H43.73V28.7875H33.168V31.2162Z" fill="white"/>
<path fill-rule="evenodd" clip-rule="evenodd" d="M41.3343 79.0472L40.3347 93.0374L47.886 95.5819C47.9439 93.848 48.1176 91.6204 48.5259 90.8707C48.724 90.5081 48.8642 90.112 48.9769 89.7097C49.0257 89.5421 49.1567 89.4476 49.2847 89.3562C49.4127 89.2648 49.5376 89.1764 49.5803 89.0149C49.6382 88.7955 49.6565 88.5974 49.6747 88.4177C49.7052 88.1099 49.7326 87.8539 49.9246 87.6193C50.3878 87.0555 50.8784 85.4801 51.2472 84.2977C51.4087 83.7797 51.5458 83.3347 51.6494 83.0879C51.817 82.6826 51.9907 81.9269 52.1674 81.1712C52.3411 80.4154 52.5179 79.6597 52.6855 79.2544C52.8196 78.9253 53.1182 78.6754 53.3833 78.456C53.4778 78.3768 53.5692 78.3006 53.6454 78.2275C53.7307 77.9593 53.813 77.5906 53.813 77.2066C53.813 76.6246 54.5718 74.7566 54.9862 73.8119C54.9009 73.9125 54.6632 74.0252 54.1147 74.0252H48.4893C48.34 74.5189 48.0414 75.6007 48.0414 75.9785C48.0414 76.4539 47.7367 77.0603 46.8286 77.3651C46.3623 77.5205 46.1338 77.5967 45.8991 77.6332C45.6767 77.6698 45.4481 77.6698 45.0063 77.6698H41.6664L41.8919 78.779L41.3343 79.0533V79.0472ZM59.8771 79.8913C59.5389 80.9091 59.1397 82.0335 58.8532 82.7344C58.4632 83.6882 57.9573 84.5019 57.5398 85.1753C57.2443 85.6507 56.9913 86.059 56.8542 86.3942C56.6531 86.8818 56.455 87.8082 56.2539 88.7376C56.1198 89.3562 55.9888 89.9748 55.8547 90.4624C55.7724 90.7641 55.7206 90.9195 55.6932 90.9865C55.7206 90.9378 55.7785 90.8677 55.8547 90.8677C56.001 90.8677 56.1107 91.0262 56.2295 91.2029C56.3819 91.4284 56.5556 91.6813 56.8542 91.6813C57.5216 91.6813 58.5211 91.6813 59.5206 92.0866C60.1869 92.3568 60.7426 92.628 61.1875 92.9002C61.7482 93.2415 61.8366 93.5859 62.0499 94.4148C62.0895 94.5702 62.1321 94.7408 62.187 94.9328C62.4521 95.9079 62.2967 96.9654 62.187 97.3737L48.4893 96.9836V97.3493H31.5006V95.78L38.6374 93.0343L37.9944 79.1813H37.7232L37.9578 77.6637H37.4185C37.2173 77.8953 36.812 78.4438 36.812 78.7729C36.812 78.9497 36.812 79.0502 36.7633 79.1081C36.6993 79.1813 36.55 79.1813 36.2056 79.1813H33.1705L32.8658 78.7729C33.0669 78.6206 33.4112 78.2457 33.1705 77.9867C32.881 77.6759 32.3112 77.5296 31.7291 77.3803C31.7048 77.3742 31.6773 77.3681 31.6529 77.359C31.0465 77.2005 28.6178 75.8414 28.3131 74.3239C28.0084 72.8063 28.3131 67.3425 28.6178 65.8249C28.7184 65.3191 28.8525 64.7462 28.9896 64.1733C29.2608 63.0275 29.529 61.8786 29.529 61.2722C29.529 60.3611 29.529 58.8435 29.2242 58.2371C28.9195 57.6307 28.9195 56.4148 28.9195 56.1131C28.9195 55.8115 29.5259 55.5067 29.8307 55.5067C30.1354 55.5067 30.1354 54.9003 29.8307 54.2939C29.5259 53.6875 29.5259 52.7763 29.8307 52.4716C30.1354 52.1669 30.7418 52.1669 31.3482 52.4716C31.8327 52.7154 32.1588 52.9775 32.2594 53.078C32.2594 52.1669 32.3203 50.1038 32.5641 49.1318C32.7652 48.3303 33.4935 47.3948 34.0542 46.6787C34.3437 46.3099 34.5845 45.9991 34.6881 45.7919C34.8983 45.3683 35.7028 44.6492 36.3732 44.0488C36.6658 43.7868 36.9309 43.5491 37.1168 43.3632C37.7232 42.7568 38.3296 42.1504 38.3296 41.8456C38.3296 41.7176 38.4393 41.5866 38.5886 41.4129C38.7898 41.1752 39.064 40.8522 39.2408 40.3281C39.5455 39.4169 39.5455 39.1152 39.5455 38.5058C39.5455 37.8963 39.5455 37.293 39.2408 36.6835C38.936 36.074 38.936 35.1659 38.936 34.2548C38.936 33.3436 39.5424 31.8261 40.4536 31.2197C41.3647 30.6133 43.7934 30.6133 44.3998 30.6133C45.0063 30.6133 45.9174 30.6133 46.5238 30.918C47.1302 31.2227 48.0414 32.1308 48.3461 32.4355C48.6508 32.7403 48.9525 33.6484 48.9525 33.9531C48.9525 34.1969 48.7514 34.8642 48.6478 35.1659C48.7484 35.5712 49.2542 36.6835 49.2542 36.6835C49.2542 36.6835 49.7601 37.3905 49.8606 37.5946C49.8606 37.6952 49.7997 37.8994 49.5559 37.8994H48.6447V38.2041C48.6447 38.4479 48.9495 39.1152 48.9495 39.1152L48.6447 39.42C48.6447 39.42 48.9495 40.0264 48.6447 40.0264C48.34 40.0264 48.34 40.3311 48.34 40.6328C48.34 40.6998 48.3553 40.7852 48.3735 40.8766C48.4314 41.1935 48.5076 41.611 48.0383 41.8456C47.6026 42.065 47.1638 41.9675 46.8407 41.8974C46.7158 41.87 46.6061 41.8456 46.5208 41.8456C46.3684 41.8456 46.1399 41.7694 45.9144 41.6933C45.6889 41.6171 45.4603 41.5409 45.3079 41.5409C45.0032 41.5409 44.7015 42.1473 44.7015 42.452C44.7015 42.7568 45.0063 43.0585 45.3079 43.3632C45.6096 43.6679 45.9144 44.576 45.9144 45.4872C45.9144 46.3983 45.9144 48.2206 46.2191 48.827C46.5238 49.4334 47.7367 51.8621 47.7367 52.7733C47.7367 53.078 47.7031 53.3797 47.6696 53.6844C47.6026 54.2908 47.5355 54.8973 47.7367 55.5067C47.9804 56.235 48.0414 57.4296 48.0414 57.9354C48.6478 58.036 49.9856 58.2402 50.4701 58.2402C51.0765 58.2402 51.6829 58.2402 52.5941 57.6337C53.5052 57.0273 54.1116 56.7226 55.0228 56.7226C55.9339 56.7226 56.5403 56.7226 57.1467 57.0273C57.7532 57.3321 58.3596 57.6337 58.3596 58.2402C58.3596 58.8466 58.6643 58.8466 59.2707 58.8466H60.7883V61.2753H55.3245C55.0197 61.2753 54.4133 61.2753 54.4133 60.9705C54.4133 60.7268 54.6144 60.2636 54.718 60.0594L54.1116 60.3641C53.8465 60.4982 53.5783 60.6902 53.3376 60.8608C53.0298 61.0833 52.7617 61.2753 52.5941 61.2753H51.6829L51.9876 61.8817C51.7865 62.0828 51.2593 62.4881 50.7748 62.4881C50.333 62.4881 50.0252 62.8233 49.8972 63.0366C49.9764 62.9879 50.2141 63.0244 50.7748 63.3993C51.1649 63.6583 51.3873 63.9203 51.6098 64.1794C51.9084 64.5268 52.204 64.8741 52.8988 65.2215C53.6606 65.6025 53.944 65.6238 54.4224 65.6634C54.7089 65.6878 55.0624 65.7152 55.6292 65.828C56.2935 65.962 56.903 66.0352 57.4515 66.1022C58.1554 66.1875 58.7618 66.2637 59.2738 66.4344C60.0021 66.6782 60.386 66.7391 60.4866 66.7391V64.3104H54.1116L52.5941 63.704V62.4912L53.2005 61.58H60.7913L61.7025 67.6502C61.803 70.4172 61.8853 76.2345 61.3977 77.3651C61.0595 78.1482 60.4104 79.1447 59.8741 79.8943L59.8771 79.8913Z" fill="white"/>
</g>
<path d="M248.694 70.075H72.617V97.3971H248.694V70.075Z" fill="#212438" stroke="white" stroke-width="2"/>
<path fill-rule="evenodd" clip-rule="evenodd" d="M197.761 97.3971H248.691V70.075H166.575L197.764 97.3971H197.761Z" fill="#2E4F49"/>
<path d="M197.853 97.3971H248.688V70.075H166.721" stroke="white" stroke-width="2"/>
<path fill-rule="evenodd" clip-rule="evenodd" d="M78.688 74.9269V91.9278H81.1563C81.9333 91.9278 82.5916 91.7998 83.1309 91.5469C83.6703 91.2848 84.103 90.843 84.4321 90.2183C84.7613 89.5875 84.9959 88.7221 85.1391 87.6281C85.2884 86.5249 85.3646 85.1293 85.3646 83.4411C85.3646 81.7529 85.2884 80.3694 85.1391 79.2663C84.9959 78.1631 84.7613 77.2977 84.4321 76.6639C84.103 76.0331 83.6703 75.5851 83.1309 75.323C82.5916 75.061 81.9333 74.9299 81.1563 74.9299H78.688V74.9269ZM82.3813 88.7007C82.1345 89.1852 81.7109 89.429 81.1136 89.429V77.4257C81.7048 77.4257 82.1253 77.6634 82.3722 78.1418C82.6251 78.6111 82.7805 79.2937 82.8323 80.1896C82.8841 81.0764 82.9115 82.149 82.9115 83.4045C82.9115 84.66 82.8841 85.7174 82.8323 86.6194C82.7805 87.5214 82.6312 88.2162 82.3843 88.7007H82.3813ZM86.5835 91.9278L89.058 74.9269H92.0017L94.4761 91.9278H92.1357L91.6908 88.4569H89.3718L88.9269 91.9278H86.5866H86.5835ZM89.704 85.821H91.3556L90.6639 80.1073L90.5968 79.2053H90.4628L90.3957 80.1073L89.704 85.821ZM96.2984 74.9269V91.9278H101.762V89.6149H98.6478V74.9269H96.2953H96.2984ZM102.975 91.9278V74.9269H105.328V89.6149H108.442V91.9278H102.978H102.975ZM111.712 74.9269L109.045 91.9278H111.565L112.047 88.4569H114.543L115.024 91.9278H117.544L114.878 74.9269H111.709H111.712ZM114.186 85.821H112.409L113.153 80.1073L113.226 79.2053H113.369L113.443 80.1073L114.186 85.821ZM119.878 91.5987C120.314 91.8181 120.86 91.9278 121.515 91.9278C122.106 91.9278 122.606 91.8212 123.02 91.6109C123.441 91.4006 123.782 91.105 124.05 90.7272C124.321 90.3493 124.523 89.9075 124.647 89.4016C124.772 88.8897 124.836 88.335 124.836 87.7378C124.836 86.7931 124.623 85.9338 124.196 85.1567C123.776 84.3796 123.23 83.5264 122.56 82.6C121.999 81.8138 121.554 81.1282 121.222 80.54C120.89 79.9519 120.726 79.3394 120.726 78.7055C120.726 78.2149 120.783 77.8371 120.902 77.575C121.021 77.3038 121.234 77.1667 121.542 77.1667C121.74 77.1667 121.905 77.2398 122.03 77.383C122.155 77.5262 122.252 77.7152 122.316 77.9498C122.383 78.1845 122.426 78.4435 122.447 78.7299C122.478 79.0103 122.493 79.2876 122.493 79.5679L124.836 79.3424C124.836 78.6873 124.772 78.09 124.647 77.5537C124.529 77.0112 124.337 76.542 124.072 76.1489C123.813 75.7558 123.471 75.4541 123.045 75.2438C122.624 75.0335 122.109 74.9269 121.497 74.9269C121.003 74.9269 120.564 75.0244 120.18 75.2225C119.796 75.4175 119.467 75.6948 119.196 76.0483C118.931 76.3957 118.727 76.8071 118.586 77.2825C118.446 77.7517 118.376 78.2637 118.376 78.8213C118.376 79.5314 118.495 80.2109 118.73 80.86C118.973 81.5091 119.309 82.1703 119.735 82.8407C120.171 83.5112 120.674 84.2395 121.25 85.0257C121.588 85.4858 121.881 85.9734 122.124 86.4853C122.368 86.9973 122.49 87.494 122.49 87.9694C122.49 88.4447 122.417 88.8531 122.268 89.1913C122.121 89.5235 121.868 89.688 121.515 89.688C121.302 89.688 121.125 89.6088 120.985 89.4504C120.854 89.2919 120.75 89.0816 120.674 88.8165C120.607 88.5453 120.561 88.2436 120.531 87.9115C120.509 87.5732 120.497 87.2197 120.497 86.8601L118.154 87.0856C118.154 87.8322 118.205 88.5057 118.309 89.0999C118.419 89.6972 118.602 90.2061 118.852 90.6266C119.101 91.0502 119.446 91.3732 119.881 91.5987H119.878Z" fill="white"/>
<path fill-rule="evenodd" clip-rule="evenodd" d="M202.072 82.4584L200.752 79.7828L199.433 82.4584L196.483 82.888L198.619 84.9694L198.116 87.907L200.755 86.5204L203.394 87.907L202.891 84.9694L205.027 82.888L202.078 82.4584H202.072Z" fill="white"/>
<path fill-rule="evenodd" clip-rule="evenodd" d="M217.245 82.4584L215.926 79.7828L214.606 82.4584L211.656 82.888L213.792 84.9694L213.29 87.907L215.929 86.5204L218.568 87.907L218.065 84.9694L220.201 82.888L217.251 82.4584H217.245Z" fill="white"/>
<path fill-rule="evenodd" clip-rule="evenodd" d="M232.435 82.4584L231.115 79.7828L229.796 82.4584L226.846 82.888L228.982 84.9694L228.479 87.907L231.118 86.5204L233.757 87.907L233.254 84.9694L235.391 82.888L232.441 82.4584H232.435Z" fill="white"/>
<path d="M162.471 97.3926C162.788 79.319 163.62 66.4259 164.595 66.4259C165.57 66.4259 166.402 79.319 166.719 97.3926" stroke="white" stroke-width="3"/>
<path fill-rule="evenodd" clip-rule="evenodd" d="M163.971 67.3402L130.905 97.3958H131.776L150.258 80.4558L132.828 97.3958H133.672L153.303 78.3135L135.025 97.3958H135.838L152.961 79.5203L136.948 97.3958H137.734L155.533 77.5243L139.142 97.3958H139.901L155.36 78.6548L141.065 97.3958H141.799L157.508 76.799L143.259 97.3958H143.966L157.474 77.8686L145.178 97.3958H145.864L158.37 77.5365L147.095 97.3958H147.763L159.211 77.2257L149.015 97.3958H149.664L159.126 78.6792L150.661 97.3958H151.294L159.879 78.4202L152.306 97.3958H152.928L161.259 76.5248L154.226 97.3958H154.832L161.936 76.3206L156.143 97.3958H156.737L162.908 74.9585L158.331 97.3958H158.916L164.611 70.0889L170.307 97.3958H170.892L166.315 74.9585L172.485 97.3958H173.08L167.287 76.3206L174.39 97.3958H174.996L167.963 76.5248L176.295 97.3958H176.916L169.344 78.4202L177.928 97.3958H178.562L170.096 78.6792L179.558 97.3958H180.207L170.011 77.2257L181.46 97.3958H182.127L170.855 77.5365L183.361 97.3958H184.047L171.751 77.8686L185.26 97.3958H185.967L171.717 76.799L187.426 97.3958H188.161L173.866 78.6548L189.325 97.3958H190.084L173.692 77.5243L191.491 97.3958H192.278L176.264 79.5203L193.387 97.3958H194.201L175.923 78.3135L195.554 97.3958H196.398L178.967 80.4558L197.449 97.3958H198.32L165.254 67.3402H163.99H163.971Z" fill="white"/>
</g>
<defs>
<filter id="filter0_dddddd_710_45" x="-52.9219" y="-32" width="382.615" height="228.397" filterUnits="userSpaceOnUse" color-interpolation-filters="sRGB">
<feFlood flood-opacity="0" result="BackgroundImageFix"/>
<feColorMatrix in="SourceAlpha" type="matrix" values="0 0 0 0 0 0 0 0 0 0 0 0 0 0 0 0 0 0 127 0" result="hardAlpha"/>
<feOffset dy="0.498106"/>
<feGaussianBlur stdDeviation="1.1069"/>
<feColorMatrix type="matrix" values="0 0 0 0 0 0 0 0 0 0 0 0 0 0 0 0 0 0 0.0365489 0"/>
<feBlend mode="normal" in2="BackgroundImageFix" result="effect1_dropShadow_710_45"/>
<feColorMatrix in="SourceAlpha" type="matrix" values="0 0 0 0 0 0 0 0 0 0 0 0 0 0 0 0 0 0 127 0" result="hardAlpha"/>
<feOffset dy="1.19702"/>
<feGaussianBlur stdDeviation="2.66004"/>
<feColorMatrix type="matrix" values="0 0 0 0 0 0 0 0 0 0 0 0 0 0 0 0 0 0 0.0525061 0"/>
<feBlend mode="normal" in2="effect1_dropShadow_710_45" result="effect2_dropShadow_710_45"/>
<feColorMatrix in="SourceAlpha" type="matrix" values="0 0 0 0 0 0 0 0 0 0 0 0 0 0 0 0 0 0 127 0" result="hardAlpha"/>
<feOffset dy="2.25388"/>
<feGaussianBlur stdDeviation="5.00862"/>
<feColorMatrix type="matrix" values="0 0 0 0 0 0 0 0 0 0 0 0 0 0 0 0 0 0 0.065 0"/>
<feBlend mode="normal" in2="effect2_dropShadow_710_45" result="effect3_dropShadow_710_45"/>
<feColorMatrix in="SourceAlpha" type="matrix" values="0 0 0 0 0 0 0 0 0 0 0 0 0 0 0 0 0 0 127 0" result="hardAlpha"/>
<feOffset dy="4.02054"/>
<feGaussianBlur stdDeviation="8.93452"/>
<feColorMatrix type="matrix" values="0 0 0 0 0 0 0 0 0 0 0 0 0 0 0 0 0 0 0.0774939 0"/>
<feBlend mode="normal" in2="effect3_dropShadow_710_45" result="effect4_dropShadow_710_45"/>
<feColorMatrix in="SourceAlpha" type="matrix" values="0 0 0 0 0 0 0 0 0 0 0 0 0 0 0 0 0 0 127 0" result="hardAlpha"/>
<feOffset dy="7.51997"/>
<feGaussianBlur stdDeviation="16.711"/>
<feColorMatrix type="matrix" values="0 0 0 0 0 0 0 0 0 0 0 0 0 0 0 0 0 0 0.0934511 0"/>
<feBlend mode="normal" in2="effect4_dropShadow_710_45" result="effect5_dropShadow_710_45"/>
<feColorMatrix in="SourceAlpha" type="matrix" values="0 0 0 0 0 0 0 0 0 0 0 0 0 0 0 0 0 0 127 0" result="hardAlpha"/>
<feOffset dy="18"/>
<feGaussianBlur stdDeviation="40"/>
<feColorMatrix type="matrix" values="0 0 0 0 0 0 0 0 0 0 0 0 0 0 0 0 0 0 0.13 0"/>
<feBlend mode="normal" in2="effect5_dropShadow_710_45" result="effect6_dropShadow_710_45"/>
<feBlend mode="normal" in="SourceGraphic" in2="effect6_dropShadow_710_45" result="shape"/>
</filter>
</defs>
</svg>
